<?xml version="1.0" encoding="UTF-8" standalone="no"?>
<!-- Created with Inkscape (http://www.inkscape.org/) -->

<svg
   width="231.49973mm"
   height="296.95908mm"
   viewBox="0 0 231.49973 296.95908"
   version="1.1"
   id="svg5"
   xml:space="preserve"
   sodipodi:docname="ENJineLogo.svg"
   xmlns:inkscape="http://www.inkscape.org/namespaces/inkscape"
   xmlns:sodipodi="http://sodipodi.sourceforge.net/DTD/sodipodi-0.dtd"
   xmlns="http://www.w3.org/2000/svg"
   xmlns:svg="http://www.w3.org/2000/svg"><sodipodi:namedview
     id="namedview7"
     pagecolor="#505050"
     bordercolor="#ffffff"
     borderopacity="1"
     inkscape:showpageshadow="0"
     inkscape:pageopacity="0"
     inkscape:pagecheckerboard="1"
     inkscape:deskcolor="#505050"
     inkscape:document-units="mm"
     showgrid="false"
     inkscape:zoom="7.1410774"
     inkscape:cx="208.44194"
     inkscape:cy="530.73224"
     inkscape:window-width="5120"
     inkscape:window-height="1377"
     inkscape:window-x="-8"
     inkscape:window-y="1072"
     inkscape:window-maximized="1"
     inkscape:current-layer="layer1" /><defs
     id="defs2" /><g
     inkscape:label="Ebene 1"
     inkscape:groupmode="layer"
     id="layer1"
     transform="translate(-0.7118565,-0.22600495)"><path
       style="fill:#F3F3F3;stroke:none;stroke-width:0.668937"
       d="m 112.44232,50.926937 c -2.45161,-1.996776 -5.66323,-4.113332 -6.47661,-7.358363 -1.7446,-6.954554 3.51586,-21.236819 -7.571081,-22.07494 0,9.781632 -0.410051,19.661785 0.015,29.433303 0.144625,3.337946 2.642271,7.587728 6.007721,4.68251 h 0.66919 c 7.32353,8.866793 15.4203,8.866793 22.74391,0 h 0.6692 c 3.36536,2.905218 5.86321,-1.344564 6.00772,-4.68251 0.42269,-9.771518 0.0149,-19.651671 0.0149,-29.433303 -11.08701,0.838121 -5.82647,15.120386 -7.57106,22.07494 -0.81346,3.245031 -4.025,5.361587 -6.47664,7.358363 V 12.128536 c 0,-2.9332639 0.89439,-11.90253104 -4.01361,-11.90253104 -4.908,0 -4.01363,8.96926714 -4.01363,11.90253104 V 50.926937 M 80.339998,95.076818 v 0.669193 c 1.996779,2.820285 1.909158,4.356839 -0.669201,6.689409 -5.415075,-14.416978 -2.675774,-32.723057 -2.675774,-48.163505 0,-3.647738 1.869652,-15.173794 -1.550619,-17.370701 -5.271911,-3.38614 -6.47529,4.906817 -6.476632,8.005603 -0.0039,8.759023 -0.891057,18.054598 0.08611,26.757447 0.772701,6.882023 3.512554,17.286714 0.848234,24.06572 -1.626861,4.13869 -5.51273,1.499731 -6.936224,-1.322526 C 61.10288,90.715634 62.278526,84.413529 62.278526,80.360477 V 66.312791 44.906817 C 51.231655,45.006362 54.920238,53.803632 54.920238,61.6302 48.219504,56.965705 45.401275,50.497763 38.196818,57.616575 v 0.669202 c 4.764206,4.388204 14.695871,9.911679 16.989011,16.057185 2.77746,7.444564 -2.723259,17.792376 -0.107443,24.721878 1.211437,3.20759 5.990336,5.87127 8.537645,7.99983 7.236535,6.04651 14.203573,12.90854 22.07494,18.11487 v 0.66921 l -6.405766,4.83712 -8.310893,-5.99372 L 49.56834,107.0235 36.189618,106.44991 H 6.7563093 c 0,10.15779 6.7997757,8.56237 15.3856167,7.54892 9.9417,-1.17263 24.671072,-3.03226 30.102186,6.49877 H 34.1828 22.141926 c -3.849763,0 -9.715187,-1.0957 -13.3054839,0.40372 -2.7897073,1.16531 -2.7897073,4.71736 0,5.88265 3.4281709,1.43156 8.9640509,0.40374 12.6365179,0.40374 8.511572,0 16.924778,0.6692 25.419598,0.6692 3.194863,0 10.323709,-1.33382 11.598036,2.71189 1.729255,5.48933 -8.83132,3.84169 -11.598036,4.16815 -13.353282,1.57598 -27.356803,0.47802 -40.8051332,0.47802 v 6.68931 H 39.534273 c 4.630365,0 10.676875,-1.08368 14.716652,1.568 15.663804,10.28159 30.183799,23.51518 44.818766,35.22359 3.843029,3.07444 12.376019,12.62419 17.392419,12.62419 5.01633,0 13.54932,-9.54975 17.39236,-12.62419 14.63502,-11.70841 29.15495,-24.942 44.81882,-35.22359 4.03971,-2.65168 10.08621,-1.568 14.7166,-1.568 h 33.4469 v -6.68931 c -13.44831,0 -27.45185,1.09765 -40.80519,-0.47802 -2.76673,-0.3263 -13.32722,1.32118 -11.59804,-4.16815 1.27432,-4.04571 8.40318,-2.71189 11.59804,-2.71189 8.49481,0 16.90804,-0.6692 25.41959,-0.6692 3.67247,0 9.20859,1.02813 12.63629,-0.40374 2.79009,-1.16529 2.79009,-4.71734 0,-5.88265 -3.59022,-1.49902 -9.45551,-0.40372 -13.30518,-0.40372 h -12.04088 -18.06129 c 5.43102,-9.53103 20.16039,-7.6714 30.10217,-6.49877 8.58576,1.01345 15.38554,2.60887 15.38554,-7.54892 h -29.43322 l -13.37881,0.57359 -21.40597,17.66865 -8.41256,5.99372 -6.30408,-4.83712 v -0.66921 c 7.87144,-5.20633 14.83839,-12.06836 22.07493,-18.11487 2.54666,-2.12856 7.32693,-4.79224 8.53764,-7.99983 2.6162,-6.929502 -2.88445,-17.277314 -0.10752,-24.721878 2.29313,-6.145506 12.22488,-11.668981 16.98899,-16.057185 v -0.669202 c -7.20445,-7.118812 -10.02268,-0.651027 -16.72338,4.013625 0,-7.826568 3.68852,-16.623754 -7.35837,-16.723383 v 21.405974 14.047686 c 0,4.053052 1.17533,10.355157 -0.68736,14.046981 -1.42349,2.822257 -5.30937,5.461216 -6.93623,1.322526 -2.66431,-6.779006 0.079,-17.183697 0.84824,-24.06572 0.97734,-8.702849 0.09,-17.998424 0.0862,-26.757447 -0.001,-3.098786 -1.20472,-11.391743 -6.47664,-8.005603 -3.42027,2.196907 -1.55062,13.722963 -1.55062,17.370701 0,15.440448 2.7393,33.746527 -2.67578,48.163505 -2.57804,-2.33257 -2.66566,-3.869124 -0.6692,-6.689409 v -0.669193 c -4.5869,-4.039782 -3.34464,-9.727753 -3.34464,-15.385621 V 44.237536 c 0,-7.376537 2.05294,-17.273363 -8.02725,-17.392349 v 48.163501 c 0,7.104115 2.71455,13.677769 -2.00683,19.399158 h -0.66924 l -4.93541,-6.689399 1.17262,-10.702948 -0.25123,-13.378802 c -3.50253,2.824944 -9.63941,15.058442 -13.94934,15.061128 -2.21689,0.0014 -1.97006,-3.498489 -4.11198,-3.45772 -2.8055,0.0553 -2.25568,5.294666 -5.98496,2.750674 -4.81903,-3.287855 -7.3055,-10.507005 -12.076344,-14.354082 l -0.250456,13.378802 1.172639,10.702948 -4.935423,6.689399 H 93.717055 C 88.99566,88.686457 91.710228,82.112803 91.710228,75.008688 V 26.845187 c -10.080195,0.119298 -8.027243,10.015812 -8.027243,17.392349 v 35.453661 c 0,5.657868 1.242243,11.345839 -3.344662,15.385621 M 36.188449,87.049562 h -0.6692 C 29.404475,79.65106 17.940204,74.118975 9.4306868,69.909331 6.6189368,68.518624 -0.2538429,67.5868 0.82588547,73.002506 1.9941817,78.862398 9.0288506,79.941417 13.444312,81.838488 c 4.901283,2.105809 9.590508,5.52545 13.378724,9.224696 l -6.020438,2.006823 C 18.035882,91.243798 2.1529888,88.044909 3.0267429,93.689431 c 1.0739603,6.938199 11.6677981,5.401011 16.4380071,5.401011 6.587636,0 16.764231,1.432188 22.035433,-3.443747 2.062354,-1.907811 2.401537,-4.286516 3.755426,-6.59032 1.942577,-3.305945 3.25301,-5.36688 2.910589,-9.365178 -0.65498,-7.63924 -14.304624,-15.885264 -20.005315,-20.313605 -2.198091,-1.707133 -6.532174,-3.859085 -8.66469,-0.655767 -2.059667,3.09381 3.542657,6.585662 5.32003,8.285448 5.816438,5.564875 16.797732,12.071611 11.371911,20.042052 m 176.599506,6.02044 h -0.6692 L 206.098,91.062953 c 3.7882,-3.699253 8.47745,-7.118893 13.37881,-9.224703 4.4156,-1.897069 11.45012,-2.975376 12.6181,-8.835979 1.07966,-5.415708 -5.79297,-4.483882 -8.60449,-3.093178 -8.5096,4.209644 -19.97386,9.741732 -26.08856,17.140232 -7.17175,-7.344934 5.6518,-15.33813 11.37191,-20.676885 1.71986,-1.60616 6.60376,-4.717983 4.65116,-7.650615 -2.1326,-3.203553 -6.46668,-1.051601 -8.66478,0.655767 -5.7007,4.428341 -19.35034,12.674365 -20.00525,20.313605 -0.34288,3.998298 0.96795,6.058599 2.91052,9.365178 1.35397,2.303804 1.69309,4.682509 3.75543,6.59032 5.2712,4.875935 15.4478,3.443747 22.03551,3.443747 4.77012,0 15.36414,1.537188 16.43777,-5.401011 0.82612,-5.336784 -14.64041,-2.929954 -17.10673,-0.619424 m -77.59672,50.839183 v 0.66921 c -4.15751,3.29985 -13.30723,13.29307 -18.73029,13.29307 -5.42305,0 -14.57278,-9.99322 -18.730264,-13.29307 l 12.709834,-13.37873 6.02043,-4.54416 6.02045,4.54416 12.70984,12.70975 M 7.4236145,163.97755 v 6.02044 c 13.4469865,0 27.4110825,1.09836 40.8052125,-0.0396 2.18877,-0.18566 3.920002,-1.8242 6.020439,-1.95797 2.675066,-0.17066 10.44143,5.31071 6.473313,7.99983 -2.576068,1.74655 -8.165752,0.68737 -11.155902,0.68737 H 20.802419 c -3.663779,0 -10.268719,-1.26833 -12.9745974,1.82218 -5.6070658,6.40306 8.2391504,6.20506 10.9677824,6.20506 8.183056,0 18.10208,1.52984 26.088564,-0.26389 4.354782,-0.97733 7.738948,-4.49122 12.040874,-5.75686 l -8.027249,11.37192 0.6692,0.66918 c 4.725331,-1.78873 8.576436,-5.90001 13.378724,-7.40046 1.778715,-0.55621 4.555465,0.32393 3.875123,2.70248 -1.260893,4.40834 -8.32827,6.15697 -10.545801,10.16325 -3.544,6.40237 2.093803,16.11937 -1.375298,22.56991 -2.876458,5.35015 -15.281245,8.75975 -16.088631,14.82364 -0.435336,3.27576 4.633761,3.45708 6.742258,3.96677 1.73052,-4.56477 5.402987,-7.22049 10.034062,-8.69614 -1.025529,8.4159 -4.440428,15.89667 6.020438,18.06133 2.135912,-7.22525 0.669199,-16.55755 0.669199,-24.08177 0,-5.88801 -2.241624,-17.70609 1.072304,-22.71781 1.222812,-1.84826 11.757234,-11.35051 13.168007,-7.20241 1.428868,4.20221 -6.374315,8.65805 -7.338217,12.52788 -2.426269,9.73906 -0.212533,22.72706 -0.212533,32.77789 0,3.95475 -1.032164,9.64005 0.403734,13.36608 1.18868,3.08307 4.093896,3.32325 6.954946,3.35739 0,-14.07244 0.669204,-28.11007 0.669204,-42.14307 0,-5.78096 0.0021,-12.82291 7.358277,-13.37872 v 54.18385 c 0,3.35675 -0.937189,8.43066 1.072303,11.33249 0.929852,1.34186 3.431028,3.39221 4.929418,1.62955 1.974658,-2.32253 0.68737,-9.38318 0.68737,-12.29307 V 220.1684 c 0,-3.38147 -1.674342,-13.45228 3.344666,-14.10053 3.545341,-0.45747 3.316605,4.55348 3.34735,6.74225 0.07109,5.0311 -1.228107,18.73627 3.342044,21.40598 0.59731,-4.70195 1.70643,-8.90157 4.71136,-12.69642 1.30443,-1.64693 5.74413,-4.38622 5.40163,0 -0.23701,3.03361 -3.76813,5.7368 -4.76152,8.68278 l 10.03408,-6.26393 10.03405,6.26393 c -0.99337,-2.94598 -4.52465,-5.64917 -4.76151,-8.68278 -0.34289,-4.38622 4.09729,-1.64693 5.40173,0 3.00485,3.79485 4.11394,7.99447 4.71126,12.69642 4.57025,-2.66971 3.27181,-16.37488 3.34206,-21.40598 0.0316,-2.18877 -0.19832,-7.19981 3.34733,-6.74225 5.0191,0.64865 3.34467,10.71906 3.34467,14.10053 v 34.11586 c 0,2.90989 -1.28696,9.97054 0.68736,12.29307 1.4985,1.76267 3.99966,-0.2876 4.92942,-1.62955 2.0095,-2.90182 1.07231,-7.97573 1.07231,-11.33248 v -54.18386 c 7.3563,0.55622 7.35835,7.59777 7.35835,13.37873 0,14.03299 0.66921,28.07062 0.66921,42.14306 2.86106,-0.0318 5.76619,-0.27417 6.95495,-3.35738 1.4355,-3.72604 0.40375,-9.41134 0.40375,-13.36609 0,-10.05083 2.21348,-23.03883 -0.21254,-32.77788 -0.964,-3.86983 -8.76709,-8.32568 -7.33831,-12.52788 1.41086,-4.14811 11.94526,5.35415 13.16809,7.2024 3.31385,5.01173 1.0723,16.8298 1.0723,22.71781 0,7.52422 -1.46702,16.85652 0.66922,24.08177 10.46077,-2.16466 7.04588,-9.64542 6.02042,-18.06132 4.631,1.47564 8.30347,4.13136 10.03407,8.69613 2.10849,-0.50959 7.17766,-0.69131 6.74219,-3.96677 -0.8074,-6.06389 -13.2122,-9.47349 -16.08865,-14.82364 -3.4691,-6.45054 2.16942,-16.16754 -1.3753,-22.5699 -2.21751,-4.00629 -9.28483,-5.75492 -10.54578,-10.16325 -0.68027,-2.3787 2.0964,-3.25839 3.87511,-2.70248 4.80237,1.50044 8.65339,5.61172 13.3788,7.40046 l 0.66922,-0.66919 -8.02728,-11.37191 c 4.30194,1.26564 7.68611,4.77953 12.04088,5.75686 7.9864,1.79341 17.90544,0.26388 26.08857,0.26388 2.72854,0 16.57494,0.19832 10.96786,-6.20506 -2.70589,-3.0905 -9.31089,-1.82218 -12.97468,-1.82218 h -28.76434 c -2.99015,0 -8.57983,1.05959 -11.15588,-0.68737 -3.96812,-2.68912 3.79823,-8.17041 6.47328,-7.99983 2.10054,0.13352 3.83168,1.772 6.02045,1.95797 13.39413,1.13782 27.35824,0.0396 40.80521,0.0396 v -6.02043 c -11.17525,-0.2307 -22.97529,0.26389 -34.11578,-0.70871 -3.2377,-0.28206 -6.72151,-3.67713 -2.63361,-5.9622 6.12742,-3.42636 20.38986,-0.68738 27.38431,-0.68738 2.39877,0 7.63325,0.95253 9.34638,-1.16529 1.73786,-2.14801 0.74661,-6.29001 -2.02761,-6.76296 -7.99312,-1.36195 -17.26656,-0.0988 -25.3801,-0.0988 -4.14343,0 -9.38452,-0.84886 -13.3788,0.34369 -5.76153,1.72049 -11.4107,8.38375 -16.0545,12.0984 -11.63745,9.31091 -23.21811,18.70349 -34.78469,28.10271 -3.82773,3.11057 -12.32721,12.98543 -17.39244,12.98543 -5.06513,0 -13.56471,-9.87486 -17.392339,-12.98543 -11.566588,-9.39922 -23.147241,-18.7918 -34.784779,-28.10271 -4.643716,-3.71465 -10.292893,-10.37791 -16.054498,-12.0984 -3.994191,-1.19271 -9.235289,-0.34369 -13.378724,-0.34369 -8.113528,0 -17.387056,-1.26294 -25.380412,0.0988 -2.7740631,0.47326 -3.7651429,4.61495 -2.0274339,6.76296 1.7132183,2.11782 6.9477599,1.16529 9.3465319,1.16529 6.994452,0 21.256807,-2.73866 27.3843,0.68738 4.087893,2.28507 0.603624,5.67991 -2.633585,5.9622 -11.140498,0.97196 -22.940554,0.47801 -34.1158136,0.70871 m 12.7097606,32.77796 h 0.6692 l 6.020438,2.00682 c -3.787502,3.69924 -8.477439,7.1188 -13.378724,9.22461 -4.4154612,1.89714 -11.4501302,2.97609 -12.61842633,8.83599 -1.07964952,5.4157 5.79305153,4.48387 8.60480123,3.09318 8.5095971,-4.20957 19.9737901,-9.74175 26.0885621,-17.14018 7.171669,7.34496 -5.651864,15.33808 -11.371911,20.67684 -1.719854,1.60615 -6.603755,4.71805 -4.651142,7.6507 2.132593,3.20354 6.466597,1.05151 8.664766,-0.65579 5.700691,-4.42833 19.350336,-12.67429 20.005237,-20.31361 0.342897,-3.99821 -0.967934,-6.05851 -2.91059,-9.36507 -1.353888,-2.30383 -1.69307,-4.68261 -3.755426,-6.59042 -5.271201,-4.87585 -15.447716,-3.44366 -22.035434,-3.44366 -4.770208,0 -15.3640456,-1.53726 -16.4380059,5.40101 -0.8260337,5.33678 14.6405659,2.93057 17.1069699,0.61942 m 176.599517,6.02044 h 0.66918 c 6.1147,7.39843 17.57898,12.93059 26.08856,17.14016 2.81154,1.3907 9.68415,2.32252 8.60449,-3.09318 -1.16798,-5.85988 -8.20248,-6.93883 -12.61809,-8.83597 -4.90139,-2.10583 -9.59061,-5.52539 -13.37881,-9.22464 l 6.02041,-2.00681 c 2.76672,1.82621 18.64931,5.02501 17.77571,-0.61942 -1.07363,-6.93827 -11.66763,-5.40101 -16.43777,-5.40101 -6.58771,0 -16.76429,-1.43219 -22.0355,3.44366 -2.06235,1.90781 -2.40145,4.28659 -3.75543,6.59042 -1.94259,3.30656 -3.25303,5.36686 -2.91051,9.36507 0.655,7.63932 14.30454,15.88528 20.00522,20.31361 2.19812,1.70713 6.53219,3.85917 8.66479,0.65579 2.05959,-3.09391 -3.54273,-6.58576 -5.32011,-8.28546 -5.81636,-5.56496 -16.79767,-12.07169 -11.37192,-20.04208 m -82.94827,44.1499 c 0,12.96669 -0.079,25.87516 -0.64314,38.79832 -0.12081,2.76813 -1.21007,11.46094 3.31859,11.46094 4.52876,0 3.43972,-8.69281 3.31859,-11.46094 -0.56569,-12.92316 -0.64313,-25.83163 -0.64313,-38.79832 9.0715,2.55329 8.6387,12.60277 9.86088,20.06812 0.41717,2.54929 -0.99204,8.62259 2.859,9.05343 5.21502,0.58307 2.66574,-12.10316 2.66574,-15.07387 0,-4.16619 1.67229,-12.82621 -2.10579,-15.65116 -2.54535,-1.90243 -5.94359,-0.53567 -8.53704,-2.62292 -2.04023,-1.64157 -4.53135,-7.00708 -7.41849,-7.00708 -2.88712,0 -5.37824,5.36551 -7.41848,7.00708 -2.59353,2.08708 -5.99168,0.72057 -8.53701,2.62292 -3.778187,2.82495 -2.105816,11.48497 -2.105816,15.65116 0,2.97071 -2.549366,15.65718 2.665736,15.07387 3.85104,-0.43062 2.44224,-6.50414 2.85901,-9.05343 1.22218,-7.46535 0.78929,-17.51483 9.86079,-20.06812 z"
       id="path179" /></g></svg>
